<?xml version="1.0" encoding="UTF-8" standalone="no"?>
<!DOCTYPE svg PUBLIC "-//W3C//DTD SVG 1.1//EN"
 "http://www.w3.org/Graphics/SVG/1.1/DTD/svg11.dtd">
<!-- Generated by graphviz version 2.40.1 (20161225.0304)
 -->
<!-- Title: %3 Pages: 1 -->
<svg width="624pt" height="332pt"
 viewBox="0.00 0.00 623.95 332.00" xmlns="http://www.w3.org/2000/svg" xmlns:xlink="http://www.w3.org/1999/xlink">
<g id="graph0" class="graph" transform="scale(1 1) rotate(0) translate(4 328)">
<title>%3</title>
<polygon fill="#ffffff" stroke="transparent" points="-4,4 -4,-328 619.9512,-328 619.9512,4 -4,4"/>
<!-- [root] junos&#45;qfx_vlan&#45;access&#45;port.ge25 -->
<g id="node1" class="node">
<title>[root] junos&#45;qfx_vlan&#45;access&#45;port.ge25</title>
<polygon fill="none" stroke="#000000" points="325.2511,-180 126.0362,-180 126.0362,-144 325.2511,-144 325.2511,-180"/>
<text text-anchor="middle" x="225.6437" y="-157.8" font-family="Times,serif" font-size="14.00" fill="#000000">junos&#45;qfx_vlan&#45;access&#45;port.ge25</text>
</g>
<!-- [root] junos&#45;qfx_vlan.vlan442xyz -->
<g id="node3" class="node">
<title>[root] junos&#45;qfx_vlan.vlan442xyz</title>
<polygon fill="none" stroke="#000000" points="417.2272,-108 248.0601,-108 248.0601,-72 417.2272,-72 417.2272,-108"/>
<text text-anchor="middle" x="332.6437" y="-85.8" font-family="Times,serif" font-size="14.00" fill="#000000">junos&#45;qfx_vlan.vlan442xyz</text>
</g>
<!-- [root] junos&#45;qfx_vlan&#45;access&#45;port.ge25&#45;&gt;[root] junos&#45;qfx_vlan.vlan442xyz -->
<g id="edge1" class="edge">
<title>[root] junos&#45;qfx_vlan&#45;access&#45;port.ge25&#45;&gt;[root] junos&#45;qfx_vlan.vlan442xyz</title>
<path fill="none" stroke="#000000" d="M252.6443,-143.8314C266.0768,-134.7927 282.491,-123.7476 296.9475,-114.0198"/>
<polygon fill="#000000" stroke="#000000" points="299.3091,-116.6494 305.6517,-108.1628 295.4011,-110.8418 299.3091,-116.6494"/>
</g>
<!-- [root] junos&#45;qfx_vlan&#45;trunk&#45;port.ge26 -->
<g id="node2" class="node">
<title>[root] junos&#45;qfx_vlan&#45;trunk&#45;port.ge26</title>
<polygon fill="none" stroke="#000000" points="536.0509,-180 343.2364,-180 343.2364,-144 536.0509,-144 536.0509,-180"/>
<text text-anchor="middle" x="439.6437" y="-157.8" font-family="Times,serif" font-size="14.00" fill="#000000">junos&#45;qfx_vlan&#45;trunk&#45;port.ge26</text>
</g>
<!-- [root] junos&#45;qfx_vlan&#45;trunk&#45;port.ge26&#45;&gt;[root] junos&#45;qfx_vlan.vlan442xyz -->
<g id="edge2" class="edge">
<title>[root] junos&#45;qfx_vlan&#45;trunk&#45;port.ge26&#45;&gt;[root] junos&#45;qfx_vlan.vlan442xyz</title>
<path fill="none" stroke="#000000" d="M412.643,-143.8314C399.2105,-134.7927 382.7964,-123.7476 368.3398,-114.0198"/>
<polygon fill="#000000" stroke="#000000" points="369.8862,-110.8418 359.6356,-108.1628 365.9782,-116.6494 369.8862,-110.8418"/>
</g>
<!-- [root] provider.junos&#45;qfx -->
<g id="node4" class="node">
<title>[root] provider.junos&#45;qfx</title>
<polygon fill="none" stroke="#000000" points="332.6437,-36 225.5597,-18 332.6437,0 439.7276,-18 332.6437,-36"/>
<text text-anchor="middle" x="332.6437" y="-13.8" font-family="Times,serif" font-size="14.00" fill="#000000">provider.junos&#45;qfx</text>
</g>
<!-- [root] junos&#45;qfx_vlan.vlan442xyz&#45;&gt;[root] provider.junos&#45;qfx -->
<g id="edge3" class="edge">
<title>[root] junos&#45;qfx_vlan.vlan442xyz&#45;&gt;[root] provider.junos&#45;qfx</title>
<path fill="none" stroke="#000000" d="M332.6437,-71.8314C332.6437,-64.131 332.6437,-54.9743 332.6437,-46.4166"/>
<polygon fill="#000000" stroke="#000000" points="336.1438,-46.4132 332.6437,-36.4133 329.1438,-46.4133 336.1438,-46.4132"/>
</g>
<!-- [root] meta.count&#45;boundary (EachMode fixup) -->
<g id="node5" class="node">
<title>[root] meta.count&#45;boundary (EachMode fixup)</title>
<ellipse fill="none" stroke="#000000" cx="174.6437" cy="-234" rx="174.7874" ry="18"/>
<text text-anchor="middle" x="174.6437" y="-229.8" font-family="Times,serif" font-size="14.00" fill="#000000">[root] meta.count&#45;boundary (EachMode fixup)</text>
</g>
<!-- [root] meta.count&#45;boundary (EachMode fixup)&#45;&gt;[root] junos&#45;qfx_vlan&#45;access&#45;port.ge25 -->
<g id="edge4" class="edge">
<title>[root] meta.count&#45;boundary (EachMode fixup)&#45;&gt;[root] junos&#45;qfx_vlan&#45;access&#45;port.ge25</title>
<path fill="none" stroke="#000000" d="M187.5131,-215.8314C193.3272,-207.6232 200.3133,-197.7606 206.7083,-188.7323"/>
<polygon fill="#000000" stroke="#000000" points="209.6768,-190.5966 212.6009,-180.4133 203.9646,-186.5505 209.6768,-190.5966"/>
</g>
<!-- [root] meta.count&#45;boundary (EachMode fixup)&#45;&gt;[root] junos&#45;qfx_vlan&#45;trunk&#45;port.ge26 -->
<g id="edge5" class="edge">
<title>[root] meta.count&#45;boundary (EachMode fixup)&#45;&gt;[root] junos&#45;qfx_vlan&#45;trunk&#45;port.ge26</title>
<path fill="none" stroke="#000000" d="M236.7744,-217.1192C274.6502,-206.8284 323.3333,-193.6013 363.5149,-182.6841"/>
<polygon fill="#000000" stroke="#000000" points="364.5374,-186.0332 373.2698,-180.0336 362.702,-179.2781 364.5374,-186.0332"/>
</g>
<!-- [root] provider.junos&#45;qfx (close) -->
<g id="node6" class="node">
<title>[root] provider.junos&#45;qfx (close)</title>
<ellipse fill="none" stroke="#000000" cx="491.6437" cy="-234" rx="124.1155" ry="18"/>
<text text-anchor="middle" x="491.6437" y="-229.8" font-family="Times,serif" font-size="14.00" fill="#000000">[root] provider.junos&#45;qfx (close)</text>
</g>
<!-- [root] provider.junos&#45;qfx (close)&#45;&gt;[root] junos&#45;qfx_vlan&#45;access&#45;port.ge25 -->
<g id="edge6" class="edge">
<title>[root] provider.junos&#45;qfx (close)&#45;&gt;[root] junos&#45;qfx_vlan&#45;access&#45;port.ge25</title>
<path fill="none" stroke="#000000" d="M432.9395,-218.1102C394.4131,-207.682 343.6405,-193.939 301.9867,-182.6643"/>
<polygon fill="#000000" stroke="#000000" points="302.7226,-179.2376 292.1555,-180.0032 300.8936,-185.9944 302.7226,-179.2376"/>
</g>
<!-- [root] provider.junos&#45;qfx (close)&#45;&gt;[root] junos&#45;qfx_vlan&#45;trunk&#45;port.ge26 -->
<g id="edge7" class="edge">
<title>[root] provider.junos&#45;qfx (close)&#45;&gt;[root] junos&#45;qfx_vlan&#45;trunk&#45;port.ge26</title>
<path fill="none" stroke="#000000" d="M478.5219,-215.8314C472.5938,-207.6232 465.4707,-197.7606 458.9503,-188.7323"/>
<polygon fill="#000000" stroke="#000000" points="461.6345,-186.4708 452.9421,-180.4133 455.9597,-190.5693 461.6345,-186.4708"/>
</g>
<!-- [root] root -->
<g id="node7" class="node">
<title>[root] root</title>
<ellipse fill="none" stroke="#000000" cx="332.6437" cy="-306" rx="46.8976" ry="18"/>
<text text-anchor="middle" x="332.6437" y="-301.8" font-family="Times,serif" font-size="14.00" fill="#000000">[root] root</text>
</g>
<!-- [root] root&#45;&gt;[root] meta.count&#45;boundary (EachMode fixup) -->
<g id="edge8" class="edge">
<title>[root] root&#45;&gt;[root] meta.count&#45;boundary (EachMode fixup)</title>
<path fill="none" stroke="#000000" d="M302.1797,-292.1177C279.6575,-281.8544 248.5425,-267.6754 222.6844,-255.892"/>
<polygon fill="#000000" stroke="#000000" points="223.9723,-252.6327 213.4212,-251.6708 221.0696,-259.0025 223.9723,-252.6327"/>
</g>
<!-- [root] root&#45;&gt;[root] provider.junos&#45;qfx (close) -->
<g id="edge9" class="edge">
<title>[root] root&#45;&gt;[root] provider.junos&#45;qfx (close)</title>
<path fill="none" stroke="#000000" d="M362.9246,-292.2879C385.8753,-281.8951 417.8487,-267.4166 444.1868,-255.4899"/>
<polygon fill="#000000" stroke="#000000" points="445.9424,-258.5371 453.6081,-251.2236 443.0548,-252.1604 445.9424,-258.5371"/>
</g>
</g>
</svg>
